<?xml version="1.0" encoding="UTF-8" standalone="no"?>
<svg width="696px" height="696px" viewBox="0 0 696 696" version="1.1" xmlns="http://www.w3.org/2000/svg" xmlns:xlink="http://www.w3.org/1999/xlink" xmlns:sketch="http://www.bohemiancoding.com/sketch/ns">
    <!-- Generator: Sketch 3.3.2 (12043) - http://www.bohemiancoding.com/sketch -->
    <title>Group Copy</title>
    <desc>Created with Sketch.</desc>
    <defs></defs>
    <g id="Page-1" stroke="none" stroke-width="1" fill="none" fill-rule="evenodd" sketch:type="MSPage">
        <g id="Group-Copy" sketch:type="MSLayerGroup">
            <rect id="Rectangle-1" fill="#F9D6BA" sketch:type="MSShapeGroup" x="315" y="0" width="66" height="184" rx="40"></rect>
            <rect id="Rectangle-1-Copy-6" fill="#F78F3E" sketch:type="MSShapeGroup" transform="translate(220.000000, 569.000000) rotate(-150.000000) translate(-220.000000, -569.000000) " x="187" y="477" width="66" height="184" rx="40"></rect>
            <rect id="Rectangle-1-Copy-11" fill="#FAAE71" sketch:type="MSShapeGroup" transform="translate(476.000000, 570.000000) scale(-1, 1) rotate(-150.000000) translate(-476.000000, -570.000000) " x="443" y="478" width="66" height="184" rx="40"></rect>
            <rect id="Rectangle-1-Copy" fill="#FB7C19" sketch:type="MSShapeGroup" transform="translate(126.000000, 220.000000) rotate(-60.000000) translate(-126.000000, -220.000000) " x="93" y="128" width="66" height="184" rx="40"></rect>
            <rect id="Rectangle-1-Copy-8" fill="#FBC69D" sketch:type="MSShapeGroup" transform="translate(570.000000, 220.000000) scale(-1, 1) rotate(-60.000000) translate(-570.000000, -220.000000) " x="537" y="128" width="66" height="184" rx="40"></rect>
            <rect id="Rectangle-1-Copy-2" fill="#F8862D" sketch:type="MSShapeGroup" transform="translate(92.000000, 348.000000) rotate(-90.000000) translate(-92.000000, -348.000000) " x="59" y="256" width="66" height="184" rx="40"></rect>
            <rect id="Rectangle-1-Copy-9" fill="#F6BA8A" sketch:type="MSShapeGroup" transform="translate(604.000000, 348.000000) scale(-1, 1) rotate(-90.000000) translate(-604.000000, -348.000000) " x="571" y="256" width="66" height="184" rx="40"></rect>
            <rect id="Rectangle-1-Copy-3" fill="#FC8E37" sketch:type="MSShapeGroup" transform="translate(127.000000, 476.000000) rotate(-120.000000) translate(-127.000000, -476.000000) " x="94" y="384" width="66" height="184" rx="40"></rect>
            <rect id="Rectangle-1-Copy-10" fill="#FBB680" sketch:type="MSShapeGroup" transform="translate(570.000000, 475.825663) scale(-1, 1) rotate(-120.000000) translate(-570.000000, -475.825663) " x="537" y="383.825663" width="66" height="184" rx="40"></rect>
            <rect id="Rectangle-1-Copy-4" fill="#FE7100" sketch:type="MSShapeGroup" transform="translate(220.000000, 126.000000) rotate(-30.000000) translate(-220.000000, -126.000000) " x="187" y="34" width="66" height="184" rx="40"></rect>
            <rect id="Rectangle-1-Copy-7" fill="#F8CEAC" sketch:type="MSShapeGroup" transform="translate(477.000000, 127.000000) scale(-1, 1) rotate(-30.000000) translate(-477.000000, -127.000000) " x="444" y="35" width="66" height="184" rx="40"></rect>
            <rect id="Rectangle-1-Copy-5" fill="#FC9B50" sketch:type="MSShapeGroup" x="315" y="512" width="66" height="184" rx="40"></rect>
        </g>
    </g>
</svg>